<?xml version="1.0" encoding="UTF-8" standalone="no"?>
<!-- Created with Inkscape (http://www.inkscape.org/) -->

<svg
   xmlns:dc="http://purl.org/dc/elements/1.1/"
   xmlns:cc="http://creativecommons.org/ns#"
   xmlns:rdf="http://www.w3.org/1999/02/22-rdf-syntax-ns#"
   xmlns:svg="http://www.w3.org/2000/svg"
   xmlns="http://www.w3.org/2000/svg"
   xmlns:sodipodi="http://sodipodi.sourceforge.net/DTD/sodipodi-0.dtd"
   xmlns:inkscape="http://www.inkscape.org/namespaces/inkscape"
   width="73.430267"
   height="39.999989"
   viewBox="0 0 19.428426 10.58333"
   version="1.1"
   id="svg1392"
   inkscape:version="0.92.3 (2405546, 2018-03-11)"
   sodipodi:docname="logo.svg">
  <defs
     id="defs1386" />
  <sodipodi:namedview
     id="base"
     pagecolor="#000000"
     bordercolor="#666666"
     borderopacity="1.0"
     inkscape:pageopacity="0"
     inkscape:pageshadow="2"
     inkscape:zoom="7.776085"
     inkscape:cx="32.471353"
     inkscape:cy="20.90019"
     inkscape:document-units="px"
     inkscape:current-layer="layer1"
     showgrid="false"
     inkscape:window-width="1024"
     inkscape:window-height="717"
     inkscape:window-x="-4"
     inkscape:window-y="-4"
     inkscape:window-maximized="1"
     inkscape:pagecheckerboard="false"
     units="px" />
  <metadata
     id="metadata1389">
    <rdf:RDF>
      <cc:Work
         rdf:about="">
        <dc:format>image/svg+xml</dc:format>
        <dc:type
           rdf:resource="http://purl.org/dc/dcmitype/StillImage" />
        <dc:title></dc:title>
      </cc:Work>
    </rdf:RDF>
  </metadata>
  <g
     inkscape:label="Layer 1"
     inkscape:groupmode="layer"
     id="layer1"
     transform="translate(-66.289616,-178.86061)">
    <g
       id="g1515"
       transform="matrix(1.8858189,0,0,1.8858189,-67.232385,-162.16044)">
      <path
         style="fill:#ffffff;stroke:#ffffff;stroke-width:0.01927407"
         d="m 71.57865,186.34106 c -0.215624,-0.0448 -0.512319,-0.29366 -0.643536,-0.53972 -0.06026,-0.11299 -0.06658,-0.13945 -0.06443,-0.26983 0.0078,-0.47528 0.551998,-1.25243 1.055378,-1.50724 0.281074,-0.14228 0.504349,-0.148 0.696004,-0.0179 0.246625,0.1675 0.214132,0.3718 -0.109992,0.69159 -0.307244,0.30314 -0.612609,0.47035 -0.612609,0.33544 0,-0.0181 0.07002,-0.10207 0.155597,-0.18662 0.427139,-0.42205 0.525121,-0.68267 0.194756,-0.51805 -0.274802,0.13694 -0.70945,0.73821 -0.861287,1.19146 -0.05983,0.1786 -0.0536,0.2586 0.02498,0.32087 0.131833,0.10447 0.473306,-0.0229 0.749628,-0.27961 0.569145,-0.52875 1.134525,-1.56145 1.958017,-3.57642 0.138012,-0.3377 0.158406,-0.40308 0.133497,-0.42799 -0.02352,-0.0235 -0.297405,0.0306 -0.666546,0.13163 -0.412405,0.1129 -0.680186,0.22249 -0.787579,0.32234 -0.06287,0.0585 -0.06736,0.13031 -0.02306,0.36914 0.05581,0.30088 0.05676,0.33079 0.01122,0.35516 -0.08318,0.0445 -0.224257,-0.0805 -0.368799,-0.3268 -0.148091,-0.25236 -0.194088,-0.49899 -0.11648,-0.62456 0.139815,-0.22622 0.654126,-0.39985 1.632393,-0.55106 0.205807,-0.0318 0.391814,-0.0686 0.41335,-0.0817 0.02154,-0.0131 0.06879,-0.0649 0.105007,-0.11495 0.07472,-0.10336 0.132762,-0.12643 0.238446,-0.0948 0.11546,0.0346 0.303337,0.16702 0.361363,0.2547 0.09259,0.13991 0.07947,0.2078 -0.14315,0.74067 -0.780161,1.86742 -1.620568,3.31019 -2.301053,3.95035 -0.367187,0.34542 -0.747469,0.51279 -1.031124,0.45382 z"
         id="path939"
         inkscape:connector-curvature="0" />
      <path
         id="path937"
         d="m 80.593789,181.36937 c -0.04291,0.001 -0.08223,0.01 -0.114929,0.0266 -0.216177,0.11179 -0.622834,0.74029 -1.033573,1.59738 -0.152928,0.31912 -0.178031,0.36057 -0.212015,0.35021 -0.08815,-0.0269 -0.198122,-0.0312 -0.274015,-0.0108 -0.124797,0.0336 -0.357157,0.20047 -0.546225,0.39226 -0.152232,0.15442 -0.236138,0.25594 -0.431257,0.52187 -0.117518,0.16016 -0.879349,0.67635 -1.34113,0.9087 -0.228458,0.11495 -0.356437,0.1513 -0.421658,0.11979 -0.04723,-0.0228 -0.05028,-0.0325 -0.04954,-0.15875 6.33e-4,-0.108 0.01332,-0.16387 0.06445,-0.28384 0.131599,-0.30882 0.524602,-0.81355 0.724811,-0.93088 0.06706,-0.0393 0.09147,-0.0446 0.132735,-0.0289 0.02782,0.0106 0.0506,0.0264 0.0506,0.0352 0,0.009 -0.0305,0.10646 -0.06776,0.2171 -0.03726,0.11063 -0.06355,0.2121 -0.05842,0.22545 0.0051,0.0134 0.03169,0.0243 0.05903,0.0243 0.06048,0 0.191897,-0.12649 0.323444,-0.31128 0.115539,-0.16231 0.302663,-0.5223 0.302663,-0.58233 0,-0.0251 -0.01738,-0.0677 -0.03862,-0.0947 -0.05246,-0.0667 -0.200753,-0.13656 -0.258882,-0.12197 -0.05158,0.0129 -0.110729,0.12041 -0.147003,0.26705 -0.01246,0.0503 -0.02925,0.0915 -0.03731,0.0915 -0.0081,0 -0.06506,-0.0303 -0.126675,-0.0675 -0.158129,-0.0952 -0.246266,-0.0959 -0.422674,-0.003 -0.209186,0.10994 -0.624296,0.57194 -0.768743,0.85559 -0.05461,0.10723 -0.730786,0.55106 -1.159757,0.76125 -0.368582,0.18059 -0.464338,0.16389 -0.446052,-0.0779 0.01833,-0.24234 0.355502,-0.79797 0.649258,-1.06994 0.152591,-0.14127 0.22147,-0.17791 0.282373,-0.15016 0.05788,0.0264 0.05737,0.0372 -0.01227,0.24322 -0.07399,0.21889 -0.07494,0.2602 -0.0058,0.2602 0.103957,0 0.365573,-0.32606 0.54054,-0.67373 0.09728,-0.1933 0.103361,-0.26281 0.02902,-0.33236 -0.06467,-0.0605 -0.163108,-0.11181 -0.214499,-0.11181 -0.05588,0 -0.113418,0.0849 -0.158823,0.23438 -0.02202,0.0725 -0.04743,0.13183 -0.05647,0.13183 -0.009,0 -0.05372,-0.0251 -0.09931,-0.0557 -0.104566,-0.0703 -0.207486,-0.0989 -0.289111,-0.0803 -0.371715,0.0845 -0.973989,0.83169 -1.115073,1.38332 -0.0712,0.27839 -0.03967,0.44675 0.112181,0.59859 0.121155,0.12116 0.276432,0.18758 0.438184,0.18751 0.115061,-6e-5 0.156311,-0.0103 0.28034,-0.0695 0.18868,-0.09 0.470137,-0.27686 0.764526,-0.50745 0.129452,-0.1014 0.238383,-0.18435 0.242056,-0.18435 0.0037,0 0.0029,0.0775 -0.0016,0.17226 -0.0071,0.14814 -0.0024,0.18444 0.03373,0.259 0.08125,0.16783 0.304537,0.31679 0.501088,0.33428 0.137075,0.0122 0.265071,-0.0318 0.505756,-0.1738 0.196279,-0.11582 0.554145,-0.3758 0.796261,-0.57849 0.08468,-0.0709 0.159628,-0.12889 0.166578,-0.12889 0.0069,0 -0.009,0.0672 -0.03539,0.14937 -0.06384,0.19854 -0.07999,0.43797 -0.03712,0.55021 0.06058,0.15863 0.239408,0.30267 0.375807,0.30267 0.07524,0 0.240275,-0.1255 0.443718,-0.33741 0.08794,-0.0916 0.164036,-0.16246 0.169062,-0.15743 0.005,0.005 -1.35e-4,0.0757 -0.01144,0.15701 -0.01131,0.0813 -0.02059,0.1897 -0.02059,0.24082 0,0.20848 0.137353,0.48275 0.306766,0.61259 0.08474,0.0649 0.150432,0.0802 0.166088,0.0385 0.005,-0.0132 -0.01264,-0.0668 -0.03915,-0.11892 -0.05763,-0.11334 -0.0614,-0.2154 -0.01754,-0.47519 0.04242,-0.25126 0.123642,-0.55674 0.240776,-0.90551 0.166076,-0.4945 0.226275,-0.62505 0.386084,-0.83736 0.492768,-0.65466 1.148671,-1.6415 1.341845,-2.01889 0.140237,-0.27397 0.12803,-0.38468 -0.05643,-0.51159 -0.09676,-0.0666 -0.208522,-0.10159 -0.302926,-0.0994 z m 0.143087,0.365 c 0.0081,-5.9e-4 0.008,0.0138 -8.28e-4,0.0435 -0.05485,0.18564 -0.35797,0.72538 -0.649484,1.15644 -0.08423,0.12456 -0.156741,0.22647 -0.161119,0.22647 -0.02191,0 0.0065,-0.0641 0.175198,-0.39572 0.207652,-0.40811 0.265386,-0.50878 0.466756,-0.81373 0.09376,-0.14198 0.151618,-0.21569 0.169477,-0.21698 z m -1.645637,2.00691 c 0.0037,-3.3e-4 0.0066,4.5e-4 0.0086,0.002 0.0049,0.005 -0.02916,0.10776 -0.07567,0.22858 -0.04651,0.12083 -0.121416,0.32811 -0.166465,0.46062 -0.04505,0.13251 -0.101429,0.26695 -0.125281,0.29875 -0.07501,0.10001 -0.47792,0.51392 -0.575399,0.5911 -0.05131,0.0406 -0.101177,0.0739 -0.110826,0.0739 -0.02989,0 -0.0196,-0.0739 0.03181,-0.2279 0.08047,-0.24111 0.269447,-0.56982 0.528945,-0.92012 0.183327,-0.24747 0.428459,-0.50232 0.484299,-0.5073 z"
         style="fill:#ffffff;stroke:none;stroke-width:0.01927408"
         inkscape:connector-curvature="0" />
    </g>
  </g>
</svg>
